{"asset":{"version":"2.0","generator":"Blockbench 3.8.4 glTF exporter"},"scenes":[{"nodes":[1,3,5,7,9,11,13,15,17,18],"name":"blockbench_export"}],"scene":0,"nodes":[{"translation":[0,-0.3125,0],"name":"e95aeb3e-928d-48bc-abb1-d8bdd7177945","mesh":0},{"translation":[0,0.3125,0],"name":"torso","children":[0]},{"translation":[0,-0.4375,0.3125],"name":"181aec0d-2b9e-3a1c-a8fb-97afc0f70ac8","mesh":1},{"translation":[0,0.4375,-0.3125],"name":"right_antenna","children":[2]},{"translation":[0,-0.3125,0],"name":"f5f23ed4-1ce8-5fa1-b014-4c23460b6aac","mesh":2},{"translation":[0,0.3125,0],"name":"stinger","children":[4]},{"translation":[0,-0.4375,0.3125],"name":"dcff364c-b0dd-724d-5ab0-b3ae15d62ae9","mesh":3},{"translation":[0,0.4375,-0.3125],"name":"left_antenna","children":[6]},{"translation":[-0.09375,-0.125,-0.125],"name":"3f9101f3-af30-ab44-f98f-0ea76c6f31b8","mesh":4},{"translation":[0.09375,0.125,0.125],"name":"back_legs","children":[8]},{"translation":[-0.09375,-0.125,0],"name":"8cc88d84-288d-8588-90b3-ccc05b91a854","mesh":5},{"translation":[0.09375,0.125,0],"name":"middle_legs","children":[10]},{"translation":[-0.09375,-0.125,0.125],"name":"bfed5ab6-ac89-27fd-6253-552917e338ab","mesh":6},{"translation":[0.09375,0.125,-0.125],"name":"front_legs","children":[12]},{"translation":[0.09375,-0.5625,0.1875],"name":"d2e6f9bd-b5c3-07e2-7fcd-8415e1237c92","mesh":7},{"translation":[-0.09375,0.5625,-0.1875],"name":"right_wing","children":[14]},{"translation":[-0.09375,-0.5625,0.1875],"name":"f28a0c86-382d-89b9-9bdd-be6fd17c24b3","mesh":8},{"translation":[0.09375,0.5625,-0.1875],"name":"left_wing","children":[16]},{"name":"body"}],"bufferViews":[{"buffer":0,"byteOffset":0,"byteLength":432,"target":34962,"byteStride":12},{"buffer":0,"byteOffset":432,"byteLength":432,"target":34962,"byteStride":12},{"buffer":0,"byteOffset":864,"byteLength":288,"target":34962,"byteStride":8},{"buffer":0,"byteOffset":1152,"byteLength":432,"target":34962,"byteStride":12},{"buffer":0,"byteOffset":1584,"byteLength":432,"target":34962,"byteStride":12},{"buffer":0,"byteOffset":2016,"byteLength":288,"target":34962,"byteStride":8},{"buffer":0,"byteOffset":2304,"byteLength":432,"target":34962,"byteStride":12},{"buffer":0,"byteOffset":2736,"byteLength":432,"target":34962,"byteStride":12},{"buffer":0,"byteOffset":3168,"byteLength":288,"target":34962,"byteStride":8},{"buffer":0,"byteOffset":3456,"byteLength":432,"target":34962,"byteStride":12},{"buffer":0,"byteOffset":3888,"byteLength":432,"target":34962,"byteStride":12},{"buffer":0,"byteOffset":4320,"byteLength":288,"target":34962,"byteStride":8},{"buffer":0,"byteOffset":4608,"byteLength":432,"target":34962,"byteStride":12},{"buffer":0,"byteOffset":5040,"byteLength":432,"target":34962,"byteStride":12},{"buffer":0,"byteOffset":5472,"byteLength":288,"target":34962,"byteStride":8},{"buffer":0,"byteOffset":5760,"byteLength":432,"target":34962,"byteStride":12},{"buffer":0,"byteOffset":6192,"byteLength":432,"target":34962,"byteStride":12},{"buffer":0,"byteOffset":6624,"byteLength":288,"target":34962,"byteStride":8},{"buffer":0,"byteOffset":6912,"byteLength":432,"target":34962,"byteStride":12},{"buffer":0,"byteOffset":7344,"byteLength":432,"target":34962,"byteStride":12},{"buffer":0,"byteOffset":7776,"byteLength":288,"target":34962,"byteStride":8},{"buffer":0,"byteOffset":8064,"byteLength":432,"target":34962,"byteStride":12},{"buffer":0,"byteOffset":8496,"byteLength":432,"target":34962,"byteStride":12},{"buffer":0,"byteOffset":8928,"byteLength":288,"target":34962,"byteStride":8},{"buffer":0,"byteOffset":9216,"byteLength":432,"target":34962,"byteStride":12},{"buffer":0,"byteOffset":9648,"byteLength":432,"target":34962,"byteStride":12},{"buffer":0,"byteOffset":10080,"byteLength":288,"target":34962,"byteStride":8}],"buffers":[{"byteLength":10368,"uri":"data:application/octet-stream;base64,"}],"accessors":[{"bufferView":0,"componentType":5126,"count":36,"max":[0.21875,0.5625,0.3125],"min":[-0.21875,0.125,-0.3125],"type":"VEC3"},{"bufferView":1,"componentType":5126,"count":36,"max":[1,1,1],"min":[-1,-1,-1],"type":"VEC3"},{"bufferView":2,"componentType":5126,"count":36,"max":[0.531005859375,0.999755859375],"min":[0.000244140625,0.734619140625],"type":"VEC2"},{"bufferView":3,"componentType":5126,"count":36,"max":[0.15625,0.5625,-0.3125],"min":[0.09375,0.4375,-0.5],"type":"VEC3"},{"bufferView":4,"componentType":5126,"count":36,"max":[1,1,1],"min":[-1,-1,-1],"type":"VEC3"},{"bufferView":5,"componentType":5126,"count":36,"max":[0.156005859375,0.952880859375],"min":[0.031494140625,0.875244140625],"type":"VEC2"},{"bufferView":6,"componentType":5126,"count":36,"max":[0.0000625000029685907,0.375,0.4375],"min":[0,0.3125,0.3125],"type":"VEC3"},{"bufferView":7,"componentType":5126,"count":36,"max":[1,1,1],"min":[-1,-1,-1],"type":"VEC3"},{"bufferView":8,"componentType":5126,"count":36,"max":[0.437744140625,0.890380859375],"min":[0.375244140625,0.843994140625],"type":"VEC2"},{"bufferView":9,"componentType":5126,"count":36,"max":[-0.09375,0.5625,-0.3125],"min":[-0.15625,0.4375,-0.5],"type":"VEC3"},{"bufferView":10,"componentType":5126,"count":36,"max":[1,1,1],"min":[-1,-1,-1],"type":"VEC3"},{"bufferView":11,"componentType":5126,"count":36,"max":[0.156005859375,0.999755859375],"min":[0.031494140625,0.922119140625],"type":"VEC2"},{"bufferView":12,"componentType":5126,"count":36,"max":[0.15625,0.125,0.125062495470047],"min":[-0.15625,0,0.125],"type":"VEC3"},{"bufferView":13,"componentType":5126,"count":36,"max":[1,1,1],"min":[-1,-1,-1],"type":"VEC3"},{"bufferView":14,"componentType":5126,"count":36,"max":[0.577880859375,0.922119140625],"min":[0.421630859375,0.890869140625],"type":"VEC2"},{"bufferView":15,"componentType":5126,"count":36,"max":[0.15625,0.125,0.0000625000029685907],"min":[-0.15625,0,0],"type":"VEC3"},{"bufferView":16,"componentType":5126,"count":36,"max":[1,1,1],"min":[-1,-1,-1],"type":"VEC3"},{"bufferView":17,"componentType":5126,"count":36,"max":[0.577880859375,0.953369140625],"min":[0.421630859375,0.922119140625],"type":"VEC2"},{"bufferView":18,"componentType":5126,"count":36,"max":[0.09375,0.125,-0.1249374970793724],"min":[-0.09375,0,-0.125],"type":"VEC3"},{"bufferView":19,"componentType":5126,"count":36,"max":[1,1,1],"min":[-1,-1,-1],"type":"VEC3"},{"bufferView":20,"componentType":5126,"count":36,"max":[0.531005859375,0.984619140625],"min":[0.437255859375,0.953369140625],"type":"VEC2"},{"bufferView":21,"componentType":5126,"count":36,"max":[0.65625,0.5625625252723694,0.1875],"min":[0.09375,0.5625,-0.1875],"type":"VEC3"},{"bufferView":22,"componentType":5126,"count":36,"max":[1,1,1],"min":[-1,-1,-1],"type":"VEC3"},{"bufferView":23,"componentType":5126,"count":36,"max":[0.468505859375,0.718505859375],"min":[0.000244140625,0.624755859375],"type":"VEC2"},{"bufferView":24,"componentType":5126,"count":36,"max":[-0.09375,0.5625625252723694,0.1875],"min":[-0.65625,0.5625,-0.1875],"type":"VEC3"},{"bufferView":25,"componentType":5126,"count":36,"max":[1,1,1],"min":[-1,-1,-1],"type":"VEC3"},{"bufferView":26,"componentType":5126,"count":36,"max":[0.468505859375,0.718505859375],"min":[0.000244140625,0.624755859375],"type":"VEC2"}],"materials":[{"pbrMetallicRoughness":{"metallicFactor":0,"roughnessFactor":1,"baseColorTexture":{"index":0}},"alphaMode":"MASK","alphaCutoff":0.05,"doubleSided":true,"name":"bee.png"}],"textures":[{"sampler":0,"source":0,"name":"bee.png"}],"samplers":[{"magFilter":9728,"minFilter":9728,"wrapS":33071,"wrapT":33071}],"images":[{"mimeType":"image/png","uri":"data:image/png;base64,"}],"meshes":[{"primitives":[{"mode":4,"attributes":{"POSITION":0,"NORMAL":1,"TEXCOORD_0":2},"material":0}]},{"primitives":[{"mode":4,"attributes":{"POSITION":3,"NORMAL":4,"TEXCOORD_0":5},"material":0}]},{"primitives":[{"mode":4,"attributes":{"POSITION":6,"NORMAL":7,"TEXCOORD_0":8},"material":0}]},{"primitives":[{"mode":4,"attributes":{"POSITION":9,"NORMAL":10,"TEXCOORD_0":11},"material":0}]},{"primitives":[{"mode":4,"attributes":{"POSITION":12,"NORMAL":13,"TEXCOORD_0":14},"material":0}]},{"primitives":[{"mode":4,"attributes":{"POSITION":15,"NORMAL":16,"TEXCOORD_0":17},"material":0}]},{"primitives":[{"mode":4,"attributes":{"POSITION":18,"NORMAL":19,"TEXCOORD_0":20},"material":0}]},{"primitives":[{"mode":4,"attributes":{"POSITION":21,"NORMAL":22,"TEXCOORD_0":23},"material":0}]},{"primitives":[{"mode":4,"attributes":{"POSITION":24,"NORMAL":25,"TEXCOORD_0":26},"material":0}]}]}