{
  "accessors": [
    {
      "bufferView": 3,
      "componentType": 5126,
      "count": 6990,
      "max": [
        42.5382194519043,
        57.1661491394043,
        42.7714729309082
      ],
      "min": [
        -42.25090789794922,
        -77.279296875,
        -42.7642936706543
      ],
      "type": "VEC3"
    },
    {
      "bufferView": 3,
      "byteOffset": 83880,
      "componentType": 5126,
      "count": 6990,
      "max": [
        0.9995213150978088,
        0.9999552965164185,
        0.9987049102783203
      ],
      "min": [
        -0.9992926120758057,
        -0.9999887347221375,
        -0.9999255537986755
      ],
      "type": "VEC3"
    },
    {
      "bufferView": 2,
      "componentType": 5126,
      "count": 6990,
      "max": [
        0.99658203125,
        0.9850387573242188
      ],
      "min": [
        0.005359649658203125,
        0.005859375
      ],
      "type": "VEC2"
    },
    {
      "bufferView": 1,
      "componentType": 5125,
      "count": 6990,
      "type": "SCALAR"
    },
    {
      "bufferView": 5,
      "componentType": 5126,
      "count": 38,
      "max": [
        100.0,
        1.0,
        2.9802322387695313e-08,
        0.0,
        5.4036765025685524e-14,
        100.0,
        3.9156265074780094e-07,
        0.0,
        1.5910455886114505e-07,
        2.9802322387695313e-08,
        100.0,
        0.0,
        19.01314926147461,
        77.51207733154297,
        19.163915634155273,
        1.0
      ],
      "min": [
        6.123234262925839e-17,
        -5.4036765025685524e-14,
        -2.9802322387695313e-08,
        0.0,
        -1.0,
        -3.57023032014972e-15,
        0.0,
        0.0,
        -8.59749556702596e-21,
        -3.9156265074780094e-07,
        1.0,
        0.0,
        -65.9667739868164,
        -53.01847839355469,
        -18.968828201293945,
        1.0
      ],
      "type": "MAT4"
    },
    {
      "bufferView": 0,
      "componentType": 5123,
      "count": 6990,
      "type": "VEC4"
    },
    {
      "bufferView": 4,
      "componentType": 5126,
      "count": 6990,
      "max": [
        1.0,
        0.49803924560546875,
        0.2235294133424759,
        0.027450982481241226
      ],
      "min": [
        0.501960813999176,
        0.0,
        0.0,
        0.0
      ],
      "type": "VEC4"
    }
  ],
  "asset": {
    "extras": {
      "author": "SMF Features Developed From Cheryl Hill (https://sketchfab.com/cherylhill28)",
      "license": "CC-BY-4.0 (http://creativecommons.org/licenses/by/4.0/)",
      "source": "https://sketchfab.com/3d-models/bfbbr-jellyfish-pink-a5c8b74d6bd243fbafc6d302d0344a97",
      "title": "BFBBR - Jellyfish Pink"
    },
    "generator": "Sketchfab-16.72.0",
    "version": "2.0"
  },
  "bufferViews": [
    {
      "buffer": 0,
      "byteLength": 55920,
      "byteStride": 8,
      "name": "shortBufferViews",
      "target": 34962
    },
    {
      "buffer": 0,
      "byteLength": 27960,
      "byteOffset": 55920,
      "name": "floatBufferViews",
      "target": 34963
    },
    {
      "buffer": 0,
      "byteLength": 55920,
      "byteOffset": 83880,
      "byteStride": 8,
      "name": "floatBufferViews",
      "target": 34962
    },
    {
      "buffer": 0,
      "byteLength": 167760,
      "byteOffset": 139800,
      "byteStride": 12,
      "name": "floatBufferViews",
      "target": 34962
    },
    {
      "buffer": 0,
      "byteLength": 111840,
      "byteOffset": 307560,
      "byteStride": 16,
      "name": "floatBufferViews",
      "target": 34962
    },
    {
      "buffer": 0,
      "byteLength": 2432,
      "byteOffset": 419400,
      "name": "floatBufferViews"
    }
  ],
  "buffers": [
    {
      "byteLength": 421832,
      "uri": "scene.bin"
    }
  ],
  "images": [
    {
      "uri": "textures/MI_EnemyJelly_Pink_baseColor.png"
    }
  ],
  "materials": [
    {
      "doubleSided": true,
      "name": "MI_EnemyJelly_Pink",
      "pbrMetallicRoughness": {
        "baseColorTexture": {
          "index": 0
        },
        "metallicFactor": 0.0,
        "roughnessFactor": 0.8239417257461427
      }
    }
  ],
  "meshes": [
    {
      "name": "enemyJellyfish_mesh.mo_MI_EnemyJelly_Pink_0",
      "primitives": [
        {
          "attributes": {
            "JOINTS_0": 5,
            "NORMAL": 1,
            "POSITION": 0,
            "TEXCOORD_0": 2,
            "WEIGHTS_0": 6
          },
          "indices": 3,
          "material": 0,
          "mode": 4
        }
      ]
    }
  ],
  "nodes": [
    {
      "children": [
        1
      ],
      "matrix": [
        1.0,
        0.0,
        0.0,
        0.0,
        0.0,
        2.220446049250313e-16,
        -1.0,
        0.0,
        0.0,
        1.0,
        2.220446049250313e-16,
        0.0,
        0.0,
        0.0,
        0.0,
        1.0
      ],
      "name": "Sketchfab_model"
    },
    {
      "children": [
        2
      ],
      "matrix": [
        0.009999999776482582,
        0.0,
        0.0,
        0.0,
        0.0,
        0.0,
        0.009999999776482582,
        0.0,
        0.0,
        -0.009999999776482582,
        0.0,
        0.0,
        0.0,
        0.0,
        0.0,
        1.0
      ],
      "name": "60ad6c50a16945eda8880f80b16e78bb.fbx"
    },
    {
      "children": [
        3
      ],
      "name": "RootNode"
    },
    {
      "children": [
        4
      ],
      "matrix": [
        100.0,
        0.0,
        0.0,
        0.0,
        0.0,
        -1.629206793918314e-05,
        -99.99999999999868,
        0.0,
        0.0,
        99.99999999999868,
        -1.629206793918314e-05,
        0.0,
        0.0,
        0.0,
        0.0,
        1.0
      ],
      "name": "enemyJellyfish_mesh.ao"
    },
    {
      "children": [
        5,
        44,
        43
      ],
      "name": "Object_4"
    },
    {
      "children": [
        6
      ],
      "name": "_rootJoint"
    },
    {
      "children": [
        7
      ],
      "name": "jt_root_01",
      "rotation": [
        0.7071067094802856,
        0.0,
        0.0,
        0.7071068286895752
      ]
    },
    {
      "children": [
        8,
        41
      ],
      "name": "jt_head_02",
      "rotation": [
        -5.293955920339377e-23,
        -0.0,
        0.0,
        1.0
      ],
      "translation": [
        0.0,
        25.69256019592285,
        4.547473508864641e-13
      ]
    },
    {
      "children": [
        9,
        17,
        25,
        33
      ],
      "name": "jt_bottom_03",
      "rotation": [
        -2.6469779601696886e-23,
        -0.0,
        0.0,
        1.0
      ],
      "translation": [
        0.0,
        -21.371570587158203,
        -2.8421709430404007e-13
      ]
    },
    {
      "children": [
        10
      ],
      "name": "jt_tentacle_B_00_04",
      "rotation": [
        3.2313060671640415e-08,
        3.2313057118926736e-08,
        -0.7071068286895752,
        0.7071067094802856
      ],
      "translation": [
        -8.359118461608887,
        -6.7366943359375,
        18.96882438659668
      ]
    },
    {
      "children": [
        11
      ],
      "name": "jt_tentacle_B_01_05",
      "rotation": [
        -3.368315879459908e-33,
        -2.3841863594498136e-08,
        -1.4127737068696717e-25,
        1.0
      ],
      "translation": [
        14.903928756713867,
        9.5367431640625e-07,
        1.8849298157874728e-06
      ]
    },
    {
      "children": [
        12
      ],
      "name": "jt_tentacle_B_02_06",
      "rotation": [
        -0.0,
        -5.293955920339377e-23,
        -1.4127737068696717e-25,
        1.0
      ],
      "translation": [
        15.008888244628906,
        9.5367431640625e-07,
        5.784313543699682e-07
      ]
    },
    {
      "children": [
        13
      ],
      "name": "jt_tentacle_B_03_07",
      "rotation": [
        6.310887241768095e-30,
        -2.6469779601696886e-23,
        -1.4127737068696717e-25,
        1.0
      ],
      "translation": [
        13.95931625366211,
        9.5367431640625e-07,
        2.6478892323211767e-07
      ]
    },
    {
      "children": [
        14
      ],
      "name": "jt_tentacle_B_04_08",
      "rotation": [
        0.0,
        -0.0,
        -1.4127737068696717e-25,
        1.0
      ],
      "translation": [
        11.545299530029297,
        -1.7763568394002505e-15,
        3.352279236423783e-07
      ]
    },
    {
      "children": [
        15
      ],
      "name": "jt_tentacle_B_05_09",
      "rotation": [
        1.262177448353619e-29,
        0.0,
        1.3093612701332412e-23,
        1.0
      ],
      "translation": [
        8.13363265991211,
        0.0,
        9.484783731750213e-07
      ]
    },
    {
      "children": [
        16
      ],
      "name": "jt_tentacle_B_06_010",
      "rotation": [
        -8.218635372259087e-08,
        -8.218636793344558e-08,
        0.7071068286895752,
        0.7071067094802856
      ],
      "translation": [
        11.545307159423828,
        0.0,
        1.018916918837931e-06
      ]
    },
    {
      "name": "jt_tentacle_B_06_end_034",
      "rotation": [
        -5.293955920339377e-23,
        -1.5777218104420236e-30,
        -0.0,
        1.0
      ],
      "translation": [
        0.0,
        5.0,
        -3.552713678800501e-15
      ]
    },
    {
      "children": [
        18
      ],
      "name": "jt_tentacle_C_00_011",
      "rotation": [
        3.2313060671640415e-08,
        3.2313057118926736e-08,
        -0.7071068286895752,
        0.7071067094802856
      ],
      "translation": [
        -19.01314926147461,
        -6.736693382263184,
        -8.424745559692383
      ]
    },
    {
      "children": [
        19
      ],
      "name": "jt_tentacle_C_01_012",
      "rotation": [
        -3.368315879459908e-33,
        -2.3841863594498136e-08,
        -1.4127737068696717e-25,
        1.0
      ],
      "translation": [
        14.903931617736816,
        0.0,
        9.31254589886521e-07
      ]
    },
    {
      "children": [
        20
      ],
      "name": "jt_tentacle_C_02_013",
      "rotation": [
        -0.0,
        -5.293955920339377e-23,
        -1.4127737068696717e-25,
        1.0
      ],
      "translation": [
        15.008888244628906,
        3.552713678800501e-15,
        5.784299901279155e-07
      ]
    },
    {
      "children": [
        21
      ],
      "name": "jt_tentacle_C_03_014",
      "rotation": [
        6.310887241768095e-30,
        -2.6469779601696886e-23,
        -1.4127737068696717e-25,
        1.0
      ],
      "translation": [
        13.959314346313477,
        0.0,
        2.647880137374159e-07
      ]
    },
    {
      "children": [
        22
      ],
      "name": "jt_tentacle_C_04_015",
      "rotation": [
        0.0,
        -0.0,
        -1.4127737068696717e-25,
        1.0
      ],
      "translation": [
        11.545297622680664,
        0.0,
        3.3522701414767653e-07
      ]
    },
    {
      "children": [
        23
      ],
      "name": "jt_tentacle_C_05_016",
      "rotation": [
        1.262177448353619e-29,
        0.0,
        1.3093612701332412e-23,
        1.0
      ],
      "translation": [
        8.133623123168945,
        0.0,
        9.484783731750213e-07
      ]
    },
    {
      "children": [
        24
      ],
      "name": "jt_tentacle_C_06_017",
      "rotation": [
        -9.48304279546619e-09,
        -9.48304368364461e-09,
        0.7071068286895752,
        0.7071067094802856
      ],
      "translation": [
        11.54530143737793,
        0.0,
        6.524260243168101e-08
      ]
    },
    {
      "name": "jt_tentacle_C_06_end_035",
      "translation": [
        0.0,
        5.0,
        -1.7763568394002505e-15
      ]
    },
    {
      "children": [
        26
      ],
      "name": "jt_tentacle_D_00_018",
      "rotation": [
        3.2313060671640415e-08,
        3.2313057118926736e-08,
        -0.7071068286895752,
        0.7071067094802856
      ],
      "translation": [
        8.440524101257324,
        -6.736692428588867,
        -19.163902282714844
      ]
    },
    {
      "children": [
        27
      ],
      "name": "jt_tentacle_D_01_019",
      "rotation": [
        -3.368315879459908e-33,
        -2.3841863594498136e-08,
        -1.4127737068696717e-25,
        1.0
      ],
      "translation": [
        14.903929710388184,
        9.5367431640625e-07,
        1.884928906292771e-06
      ]
    },
    {
      "children": [
        28
      ],
      "name": "jt_tentacle_D_02_020",
      "rotation": [
        -0.0,
        -5.293955920339377e-23,
        -1.4127737068696717e-25,
        1.0
      ],
      "translation": [
        15.008888244628906,
        9.5367431640625e-07,
        5.784299901279155e-07
      ]
    },
    {
      "children": [
        29
      ],
      "name": "jt_tentacle_D_03_021",
      "rotation": [
        6.310887241768095e-30,
        -2.6469779601696886e-23,
        -1.4127737068696717e-25,
        1.0
      ],
      "translation": [
        13.95931625366211,
        9.5367431640625e-07,
        2.647880137374159e-07
      ]
    },
    {
      "children": [
        30
      ],
      "name": "jt_tentacle_D_04_022",
      "rotation": [
        0.0,
        -0.0,
        -1.4127737068696717e-25,
        1.0
      ],
      "translation": [
        11.545299530029297,
        1.7763568394002505e-15,
        3.3522701414767653e-07
      ]
    },
    {
      "children": [
        31
      ],
      "name": "jt_tentacle_D_05_00",
      "rotation": [
        1.262177448353619e-29,
        0.0,
        1.3093612701332412e-23,
        1.0
      ],
      "translation": [
        8.133625030517578,
        -1.7763568394002505e-15,
        9.484783731750213e-07
      ]
    },
    {
      "children": [
        32
      ],
      "name": "jt_tentacle_D_06_023",
      "rotation": [
        -7.164964443973076e-08,
        -7.164965865058548e-08,
        0.7071068286895752,
        0.7071067094802856
      ],
      "translation": [
        11.545299530029297,
        0.0,
        1.018916918837931e-06
      ]
    },
    {
      "name": "jt_tentacle_D_06_end_032",
      "rotation": [
        0.0,
        0.0,
        3.76158192263132e-37,
        1.0
      ],
      "translation": [
        0.0,
        5.0,
        -3.552713678800501e-15
      ]
    },
    {
      "children": [
        34
      ],
      "name": "jt_tentacle_A_00_024",
      "rotation": [
        3.2313060671640415e-08,
        3.2313057118926736e-08,
        -0.7071068286895752,
        0.7071067094802856
      ],
      "translation": [
        19.113252639770508,
        -6.736693382263184,
        8.262931823730469
      ]
    },
    {
      "children": [
        35
      ],
      "name": "jt_tentacle_A_01_025",
      "rotation": [
        -1.4901161193847656e-08,
        -2.3841863594498136e-08,
        3.552714525833448e-16,
        1.0
      ],
      "translation": [
        14.903931617736816,
        3.552713678800501e-15,
        9.312550446338719e-07
      ]
    },
    {
      "children": [
        36
      ],
      "name": "jt_tentacle_A_02_026",
      "rotation": [
        1.4901161193847656e-08,
        -2.6469779601696886e-23,
        -3.653691008520897e-23,
        1.0
      ],
      "translation": [
        15.008888244628906,
        -2.462546433434909e-07,
        1.9437590026427642e-07
      ]
    },
    {
      "children": [
        37
      ],
      "name": "jt_tentacle_A_03_027",
      "rotation": [
        1.4901161193847656e-08,
        -2.6469779601696886e-23,
        -1.337622685379327e-23,
        1.0
      ],
      "translation": [
        13.959318161010742,
        -7.105427357601002e-14,
        2.647884684847668e-07
      ]
    },
    {
      "children": [
        38
      ],
      "name": "jt_tentacle_A_04_028",
      "rotation": [
        -1.4901162970204496e-08,
        -2.6469779601696886e-23,
        -4.315510282577134e-23,
        1.0
      ],
      "translation": [
        11.54530143737793,
        2.462545580783626e-07,
        7.192820135060174e-07
      ]
    },
    {
      "children": [
        39
      ],
      "name": "jt_tentacle_A_05_029",
      "rotation": [
        4.0290950827305584e-23,
        -2.802596928649634e-45,
        -5.484318785277518e-23,
        1.0
      ],
      "translation": [
        8.133630752563477,
        -1.2079226507921703e-13,
        9.484784300184401e-07
      ]
    },
    {
      "children": [
        40
      ],
      "name": "jt_tentacle_A_06_030",
      "rotation": [
        -9.48304190728777e-09,
        -9.48304457182303e-09,
        0.7071068286895752,
        0.7071067094802856
      ],
      "translation": [
        11.545297622680664,
        -1.3855583347321954e-13,
        6.524358298065636e-08
      ]
    },
    {
      "name": "jt_tentacle_A_06_end_036",
      "rotation": [
        -2.6469779601696886e-23,
        3.944304526105059e-31,
        1.3594808458220306e-31,
        1.0
      ],
      "translation": [
        0.0,
        5.0,
        -1.7763568394002505e-15
      ]
    },
    {
      "children": [
        42
      ],
      "name": "jt_top_031",
      "rotation": [
        4.263256414560601e-14,
        0.0,
        0.0,
        1.0
      ],
      "translation": [
        0.0,
        27.325918197631836,
        4.547473508864641e-13
      ]
    },
    {
      "name": "jt_top_end_033",
      "rotation": [
        -2.6469779601696886e-23,
        -0.0,
        0.0,
        1.0
      ],
      "translation": [
        0.0,
        5.0,
        3.3881317890172014e-21
      ]
    },
    {
      "matrix": [
        100.0,
        0.0,
        0.0,
        0.0,
        0.0,
        1.427208705516006e-12,
        -100.00000000000483,
        0.0,
        0.0,
        100.00000000000483,
        1.427208705516006e-12,
        0.0,
        0.0,
        0.0,
        0.0,
        1.0
      ],
      "name": "Object_43"
    },
    {
      "mesh": 0,
      "name": "Object_44",
      "skin": 0
    }
  ],
  "samplers": [
    {
      "magFilter": 9729,
      "minFilter": 9987,
      "wrapS": 10497,
      "wrapT": 10497
    }
  ],
  "scene": 0,
  "scenes": [
    {
      "name": "Sketchfab_Scene",
      "nodes": [
        0
      ]
    }
  ],
  "skins": [
    {
      "inverseBindMatrices": 4,
      "joints": [
        5,
        6,
        7,
        8,
        9,
        10,
        11,
        12,
        13,
        14,
        15,
        16,
        17,
        18,
        19,
        20,
        21,
        22,
        23,
        24,
        25,
        26,
        27,
        28,
        29,
        30,
        31,
        32,
        33,
        34,
        35,
        36,
        37,
        38,
        39,
        40,
        41,
        42
      ],
      "skeleton": 5
    }
  ],
  "textures": [
    {
      "sampler": 0,
      "source": 0
    }
  ]
}
